<mxfile host="app.diagrams.net" modified="2024-07-02T18:14:09.183Z" agent="Mozilla/5.0 (Windows NT 10.0; Win64; x64) AppleWebKit/537.36 (KHTML, like Gecko) Chrome/126.0.0.0 Safari/537.36 Edg/126.0.0.0" etag="WRoqYMmCDOZ4XUut1tlJ" version="24.6.3" type="device">
  <diagram name="Page-1" id="Q5BuMXfLaqHmnYOly2KS">
    <mxGraphModel dx="612" dy="408" grid="1" gridSize="10" guides="1" tooltips="1" connect="1" arrows="1" fold="1" page="1" pageScale="1" pageWidth="850" pageHeight="1100" math="0" shadow="0">
      <root>
        <mxCell id="0" />
        <mxCell id="1" parent="0" />
        <mxCell id="H3_D0BGt0QTHlaMGtQvR-1" value="getComputerChoice" style="whiteSpace=wrap;html=1;" vertex="1" parent="1">
          <mxGeometry x="425" y="70" width="120" height="60" as="geometry" />
        </mxCell>
        <mxCell id="H3_D0BGt0QTHlaMGtQvR-2" value="getHumanChoice" style="whiteSpace=wrap;html=1;" vertex="1" parent="1">
          <mxGeometry x="360" y="140" width="120" height="60" as="geometry" />
        </mxCell>
        <mxCell id="H3_D0BGt0QTHlaMGtQvR-3" value="&lt;b&gt;playRound&lt;/b&gt;&lt;div&gt;&lt;b&gt;getHumanChoice()&lt;/b&gt;&lt;/div&gt;&lt;div&gt;&lt;b&gt;getComputerChoice()&lt;/b&gt;&lt;/div&gt;&lt;div&gt;&lt;b&gt;show both choice&lt;/b&gt;&lt;/div&gt;&lt;div&gt;&lt;b&gt;add score according to rules&lt;/b&gt;&lt;/div&gt;&lt;div&gt;&lt;b&gt;repeat 5 times&lt;/b&gt;&lt;/div&gt;" style="whiteSpace=wrap;html=1;" vertex="1" parent="1">
          <mxGeometry x="150" y="80" width="140" height="140" as="geometry" />
        </mxCell>
      </root>
    </mxGraphModel>
  </diagram>
</mxfile>
